<?xml version="1.0" encoding="utf-8"?>
<!-- Generator: Adobe Illustrator 27.4.0, SVG Export Plug-In . SVG Version: 6.00 Build 0)  -->
<svg version="1.1" id="Layer_1" xmlns="http://www.w3.org/2000/svg" xmlns:xlink="http://www.w3.org/1999/xlink" x="0px" y="0px"
	 viewBox="0 0 327.6 325.8" style="enable-background:new 0 0 327.6 325.8;" xml:space="preserve">
<style type="text/css">
	.st0{fill:#0C7680;}
	.st1{fill:#F68522;}
	.st2{fill:#007580;}
	.st3{fill:#007580;stroke:#0C7680;stroke-miterlimit:10;}
</style>
<g>
	<g>
		<g>
			<polygon class="st0" points="236.7,147.7 248.4,158.9 237.3,170.7 225.5,159.5 			"/>
			<g>
				<path class="st0" d="M202.8,40.7l-8.4,9.3l51,46.5l-65.6,73c-0.2,0.2-0.4,0.4-0.6,0.6c-3.3,3.4-7.7,5.4-12.4,5.6
					c-5,0.3-9.8-1.5-13.5-4.9l-0.8-0.7l-71.7-65.3l78.2-87l26,23.8l8.4-9.3L158.1,0l-95,105.6l70.7,64.5l11,10.1
					c6,5.4,13.5,8.1,20.9,8.1c8.5,0,17-3.5,23.2-10.3l7.1-7.9l67-74.5L202.8,40.7z"/>
			</g>
			<polygon class="st0" points="175.6,52 116.3,118 100.6,103.7 160,37.8 			"/>
			<polygon class="st0" points="225.5,97.5 166.2,163.5 150.5,149.2 195.1,99.7 185.6,91.4 141.2,140.7 125.6,126.5 185,60.5 			"/>
			<path class="st1" d="M196.1,170.1l-7.1,7.9c-6.1,6.8-14.6,10.3-23.2,10.3c-7.5,0-15-2.7-20.9-8.1l-11-10.1h18.6l0.8,0.7
				c3.7,3.4,8.5,5.1,13.5,4.9c4.7-0.2,9.1-2.2,12.4-5.6H196.1z"/>
		</g>
	</g>
	<g>
		<path class="st0" d="M61.2,244.7c2.4-2.1,3.9-5.1,3.9-8.8c0-7.8-6.3-12.9-14.2-12.9H34.4c-0.6,0-1.1,0.5-1.1,1.1V267
			c0,0.6,0.5,1.1,1.1,1.1h17.8c8,0,14.5-5.2,14.5-13.2C66.7,250.3,64.6,246.8,61.2,244.7z M43.6,232.7h7.3c2.4,0,3.9,1.7,3.9,4
			c0,2.3-1.6,4-3.9,4h-7.3V232.7z M52.2,258.4h-8.6v-8.6h8.6c2.6,0,4.2,1.8,4.2,4.3C56.5,256.6,54.8,258.4,52.2,258.4z"/>
		<path class="st0" d="M112.9,223h-11.6c-0.4,0-0.9,0.3-1,0.7l-14.6,42.9c-0.2,0.7,0.3,1.4,1,1.4h9.7l1.2-3.6l1.1-3.5l3.1-9.6
			l1.2-3.9l4-12.7l5.3,16.6h-8.3c-0.5,0-0.9,0.3-1,0.7l-2.4,7.5c-0.2,0.7,0.3,1.4,1,1.4h13.8l2.2,7.1H129l-15.1-44.3
			C113.8,223.3,113.3,223,112.9,223z"/>
		<path class="st0" d="M165,223h-16.9c-0.6,0-1.1,0.5-1.1,1.1V267c0,0.6,0.5,1.1,1.1,1.1H165c12.4,0,21.9-9.8,21.9-22.5
			S177.4,223,165,223z M165,258.2h-7.7v-25.2h7.7c7.1,0,12,4.9,12,12.6C177,253.3,172.1,258.2,165,258.2z"/>
		<path class="st0" d="M214.2,258.2v-8h16.1v-9.8h-16.1v-7.5h16.6c0.6,0,1.1-0.5,1.1-1.1v-7.8c0-0.6-0.5-1.1-1.1-1.1h-25.8
			c-0.6,0-1.1,0.5-1.1,1.1V267c0,0.6,0.5,1.1,1.1,1.1h26.2c0.6,0,1.1-0.5,1.1-1.1v-7.8c0-0.6-0.5-1.1-1.1-1.1H214.2z"/>
		<g>
			<path class="st0" d="M284.3,251.5c4.3-2.1,7.3-6.1,8.1-10.7c0.1-0.8,0.2-1.5,0.2-2.3c0-8.6-6.9-15.4-15.4-15.4h-16.9
				c-0.6,0-1.1,0.5-1.1,1.1V267c0,0.6,0.5,1.1,1.1,1.1h8.1c0.6,0,1.1-0.5,1.1-1.1v-13.7h4.9l8.5,14.8h11.1L284.3,251.5z
				 M277.2,244.3h-7.7v-11.6h7.7c2.8,0,5.1,2.5,5.1,5.8c0,0.8-0.2,1.6-0.4,2.3C281.1,242.9,279.3,244.3,277.2,244.3z"/>
			<path class="st1" d="M293.9,268.1h-11.1l-8.5-14.8H274v-9h3.1c2.1,0,3.9-1.4,4.7-3.5h10.5c-0.8,4.6-3.8,8.6-8.1,10.7L293.9,268.1
				z"/>
		</g>
	</g>
</g>
<g>
	<g>
		<polygon class="st2" points="25.2,290 25.2,293.4 14.4,293.4 14.4,325.3 10.8,325.3 10.8,293.4 0,293.4 0,290 		"/>
	</g>
	<g>
		<polygon class="st2" points="50.8,321.8 50.8,325.3 30.1,325.3 30.1,290 50.6,290 50.6,293.4 33.7,293.4 33.7,305.8 49.4,305.8 
			49.4,309.2 33.7,309.2 33.7,321.8 		"/>
	</g>
	<g>
		<path class="st2" d="M88.3,316.7l-0.2,0.4c-3,5.3-8.8,8.6-15.2,8.6c-10.5,0-18.3-7.8-18.3-18.2c0-10.4,7.9-18.2,18.3-18.2
			c6.4,0,12.2,3.2,15.1,8.5l0.2,0.4l-3.2,1.8l-0.2-0.5c-2.2-4.1-6.9-6.8-12-6.8c-8.4,0-14.7,6.3-14.7,14.7s6.3,14.7,14.7,14.7
			c5.1,0,9.9-2.7,12.1-6.9l0.2-0.5L88.3,316.7z"/>
	</g>
	<g>
		<polygon class="st2" points="119.9,290 119.9,325.3 116.3,325.3 116.3,308.9 97.3,308.9 97.3,325.3 93.7,325.3 93.7,290 97.3,290 
			97.3,305.4 116.3,305.4 116.3,290 		"/>
	</g>
	<g>
		<polygon class="st2" points="154,290 154,325.3 151,325.3 150.8,325.1 131.5,296.9 131.5,325.3 127.9,325.3 127.9,290 130.9,290 
			150.4,318.4 150.4,290 		"/>
	</g>
	<g>
		<path class="st3" d="M178.3,289.9c-9.9,0-17.7,7.9-17.7,17.7s7.8,17.7,17.7,17.7c9.9,0,17.7-7.9,17.7-17.7
			S188.2,289.9,178.3,289.9z M178.3,322.8c-8.5,0-15.1-6.8-15.1-15.2c0-8.4,6.6-15.2,15.1-15.2c8.5,0,15.1,6.8,15.1,15.2
			C193.4,316,186.7,322.8,178.3,322.8z"/>
	</g>
	<g>
		<polygon class="st2" points="222.3,321.8 222.3,325.3 202.5,325.3 202.5,290 206.1,290 206.1,321.8 		"/>
	</g>
	<g>
		<path class="st3" d="M240.9,289.9c-9.9,0-17.7,7.9-17.7,17.7s7.8,17.7,17.7,17.7c9.9,0,17.7-7.9,17.7-17.7
			S250.8,289.9,240.9,289.9z M240.9,322.8c-8.5,0-15.1-6.8-15.1-15.2c0-8.4,6.6-15.2,15.1-15.2c8.5,0,15.1,6.8,15.1,15.2
			C256,316,249.4,322.8,240.9,322.8z"/>
	</g>
	<g>
		<path class="st2" d="M298.8,308.3v1.8c0,9.1-7.2,15.7-17.1,15.7c-10.6,0-18.5-7.8-18.5-18.2c0-10.4,7.9-18.2,18.3-18.2
			c6.3,0,12.2,3.3,15.2,8.5l0.2,0.4l-3.2,1.9l-0.2-0.5c-2.2-4.2-6.9-6.9-12-6.9c-8.4,0-14.7,6.3-14.7,14.7c0,8.5,6.3,14.7,14.9,14.7
			c7.3,0,12.6-4.2,13.4-10.6h-14.5v-3.5H298.8z"/>
	</g>
	<g>
		<polygon class="st2" points="327.6,290 314.7,310.8 314.7,325.3 311.1,325.3 311.1,310.5 312.5,307.9 323.5,290 		"/>
		<polygon class="st2" points="312.1,305.9 310.2,309.3 298.2,290 302.3,290 		"/>
	</g>
</g>
</svg>
