<svg xmlns="http://www.w3.org/2000/svg" xmlns:xlink="http://www.w3.org/1999/xlink" width="394" zoomAndPan="magnify" viewBox="0 0 295.5 295.500005" height="394" preserveAspectRatio="xMidYMid meet" version="1.0"><defs><clipPath id="964e9fd9b1"><path d="M 14 9.214844 L 281 9.214844 L 281 285.496094 L 14 285.496094 Z M 14 9.214844 " clip-rule="nonzero"/></clipPath></defs><g clip-path="url(#964e9fd9b1)"><path fill="#0a7780" d="M 274.179688 147.527344 C 274.179688 133.234375 283.152344 117.660156 278.988281 104.777344 C 274.628906 91.382812 258.09375 84.136719 250.015625 72.984375 C 241.8125 61.769531 240.019531 43.824219 228.738281 35.621094 C 217.585938 27.542969 200.023438 31.261719 186.628906 26.902344 C 173.746094 22.738281 161.761719 9.214844 147.46875 9.214844 C 133.175781 9.214844 121.1875 22.738281 108.304688 26.902344 C 94.910156 31.261719 77.347656 27.480469 66.195312 35.621094 C 54.917969 43.824219 53.058594 61.769531 44.917969 72.984375 C 36.84375 84.136719 20.242188 91.382812 15.949219 104.777344 C 11.78125 117.660156 20.753906 133.234375 20.753906 147.527344 C 20.753906 161.820312 11.78125 177.394531 15.949219 190.277344 C 20.242188 203.609375 36.777344 210.851562 44.917969 222.003906 C 53.121094 233.21875 54.917969 251.230469 66.195312 259.371094 C 77.347656 267.445312 94.910156 263.726562 108.304688 268.085938 C 121.1875 272.253906 133.175781 285.777344 147.46875 285.777344 C 161.761719 285.777344 173.746094 272.253906 186.628906 268.085938 C 200.023438 263.726562 217.585938 267.507812 228.738281 259.371094 C 239.953125 251.164062 241.8125 233.21875 250.015625 222.003906 C 258.09375 210.851562 274.691406 203.609375 278.988281 190.214844 C 283.21875 177.332031 274.179688 161.820312 274.179688 147.527344 Z M 274.179688 147.527344 " fill-opacity="1" fill-rule="nonzero"/></g><path fill="#f68522" d="M 147.46875 272.445312 C 139.457031 272.445312 132.339844 267.957031 125.417969 263.601562 C 120.867188 260.714844 116.511719 257.960938 112.023438 256.550781 C 107.28125 255.011719 101.769531 254.628906 96.449219 254.242188 C 88.4375 253.664062 80.167969 253.089844 74.015625 248.601562 C 67.800781 244.050781 64.660156 236.359375 61.644531 228.863281 C 59.660156 223.925781 57.609375 218.863281 54.722656 214.890625 C 51.902344 210.980469 47.738281 207.519531 43.699219 204.121094 C 37.484375 198.929688 31.007812 193.546875 28.636719 186.109375 C 26.332031 178.996094 28.316406 171.050781 30.242188 163.359375 C 31.523438 158.101562 32.933594 152.652344 32.933594 147.527344 C 32.933594 142.398438 31.585938 136.953125 30.242188 131.695312 C 28.316406 124.003906 26.332031 115.992188 28.636719 108.941406 C 31.074219 101.507812 37.484375 96.125 43.699219 90.933594 C 47.738281 87.597656 51.902344 84.074219 54.722656 80.164062 C 57.609375 76.191406 59.660156 71.128906 61.644531 66.191406 C 64.660156 58.691406 67.800781 51.003906 74.015625 46.453125 C 80.167969 41.964844 88.4375 41.386719 96.449219 40.8125 C 101.769531 40.425781 107.28125 40.042969 112.023438 38.503906 C 116.511719 37.03125 120.804688 34.335938 125.417969 31.453125 C 132.339844 27.09375 139.457031 22.609375 147.46875 22.609375 C 155.480469 22.609375 162.59375 27.09375 169.515625 31.453125 C 174.066406 34.335938 178.425781 37.09375 182.910156 38.503906 C 187.652344 40.042969 193.167969 40.425781 198.484375 40.8125 C 206.496094 41.386719 214.765625 41.964844 220.917969 46.453125 C 227.136719 51.003906 230.277344 58.691406 233.289062 66.191406 C 235.277344 71.128906 237.328125 76.191406 240.210938 80.164062 C 243.03125 84.074219 247.195312 87.535156 251.234375 90.933594 C 257.453125 96.125 263.925781 101.507812 266.296875 108.941406 C 268.605469 116.058594 266.617188 124.003906 264.695312 131.695312 C 263.414062 136.953125 262.003906 142.398438 262.003906 147.527344 C 262.003906 152.65625 263.347656 158.101562 264.695312 163.359375 C 266.617188 171.050781 268.605469 179.0625 266.296875 186.109375 C 263.859375 193.546875 257.453125 198.929688 251.234375 204.121094 C 247.195312 207.453125 243.03125 210.980469 240.210938 214.890625 C 237.328125 218.863281 235.277344 223.925781 233.289062 228.863281 C 230.277344 236.359375 227.136719 244.050781 220.917969 248.601562 C 214.765625 253.089844 206.496094 253.664062 198.484375 254.242188 C 193.167969 254.628906 187.652344 255.011719 182.910156 256.550781 C 178.425781 258.023438 174.128906 260.714844 169.515625 263.601562 C 162.59375 267.894531 155.480469 272.445312 147.46875 272.445312 Z M 147.46875 24.53125 C 140.03125 24.53125 133.109375 28.890625 126.445312 33.054688 C 121.957031 35.875 117.34375 38.824219 112.601562 40.296875 C 107.601562 41.902344 102.023438 42.285156 96.578125 42.667969 C 88.5 43.246094 80.875 43.757812 75.105469 47.925781 C 69.335938 52.15625 66.324219 59.589844 63.375 66.832031 C 61.324219 71.832031 59.273438 77.089844 56.199219 81.253906 C 53.1875 85.355469 48.957031 88.882812 44.855469 92.34375 C 38.828125 97.339844 32.613281 102.53125 30.367188 109.457031 C 28.253906 115.992188 30.046875 123.363281 32.035156 131.183594 C 33.382812 136.566406 34.726562 142.144531 34.726562 147.460938 C 34.726562 152.78125 33.316406 158.359375 32.035156 163.742188 C 30.113281 171.5625 28.253906 178.867188 30.367188 185.46875 C 32.613281 192.390625 38.828125 197.582031 44.855469 202.582031 C 48.957031 206.042969 53.25 209.570312 56.199219 213.671875 C 59.210938 217.835938 61.324219 223.027344 63.375 228.09375 C 66.261719 235.335938 69.273438 242.769531 75.105469 247 C 80.808594 251.164062 88.4375 251.679688 96.578125 252.253906 C 102.023438 252.640625 107.664062 253.023438 112.601562 254.625 C 117.34375 256.164062 121.957031 259.050781 126.445312 261.871094 C 133.109375 266.101562 140.03125 270.394531 147.46875 270.394531 C 154.902344 270.394531 161.824219 266.035156 168.488281 261.871094 C 172.976562 259.050781 177.589844 256.101562 182.335938 254.625 C 187.332031 253.023438 192.910156 252.640625 198.359375 252.253906 C 206.433594 251.679688 214.0625 251.164062 219.828125 247 C 225.597656 242.769531 228.609375 235.335938 231.558594 228.09375 C 233.609375 223.09375 235.660156 217.835938 238.738281 213.671875 C 241.75 209.570312 245.980469 206.042969 250.082031 202.582031 C 256.105469 197.582031 262.324219 192.390625 264.566406 185.46875 C 266.679688 178.933594 264.886719 171.5625 262.898438 163.742188 C 261.554688 158.359375 260.207031 152.78125 260.207031 147.460938 C 260.207031 142.078125 261.617188 136.566406 262.898438 131.183594 C 264.824219 123.363281 266.679688 116.058594 264.566406 109.457031 C 262.324219 102.53125 256.105469 97.339844 250.082031 92.34375 C 245.980469 88.882812 241.683594 85.355469 238.738281 81.253906 C 235.722656 77.089844 233.609375 71.894531 231.558594 66.832031 C 228.675781 59.589844 225.660156 52.15625 219.828125 47.925781 C 214.125 43.757812 206.496094 43.246094 198.359375 42.667969 C 192.910156 42.285156 187.269531 41.902344 182.335938 40.296875 C 177.589844 38.761719 172.976562 35.875 168.488281 33.054688 C 161.761719 28.824219 154.902344 24.53125 147.46875 24.53125 Z M 147.46875 24.53125 " fill-opacity="1" fill-rule="nonzero"/></svg>